
		<svg width="3078.843626806833" height="480.946123521682" xmlns="http://www.w3.org/2000/svg" xmlns:xlink="http://www.w3.org/1999/xlink" version="1.1">
            <g transform="scale(3.942181340341656) translate(10, 10)">
				<defs id="SvgjsDefs1105"/><g id="main_text" rel="mainfill" name="main_text" feature="main_text" xmlns:name="mainText_mainfill" groupName="main_text" fill="#24292e" transform="translate(168.20000648498535, -18.040000915527344) scale(4)"><path d="M2.6 19.1 q0 2.04 0.94 3 t2.82 0.96 q0.76 0 1.41 -0.13 t1.27 -0.35 q0.1 0.22 0.16 0.54 t0.08 0.58 q-0.58 0.26 -1.36 0.4 t-1.7 0.14 q-1.32 0 -2.27 -0.39 t-1.56 -1.09 t-0.9 -1.67 t-0.29 -2.13 q0 -1.12 0.27 -2.1 t0.82 -1.72 t1.41 -1.16 t2.06 -0.42 q1 0 1.78 0.34 t1.31 0.95 t0.8 1.46 t0.27 1.85 q0 0.18 -0.01 0.46 t-0.03 0.48 l-7.28 0 z M8.6 18 q0 -0.62 -0.16 -1.22 t-0.5 -1.05 t-0.88 -0.73 t-1.3 -0.28 q-1.4 0 -2.18 0.86 t-0.94 2.42 l5.96 0 z M12.280083333333332 13.8 q0.16 -0.02 0.31 -0.03 t0.29 -0.01 q0.16 0 0.3 0.01 t0.3 0.03 q0.04 0.36 0.06 0.86 t0.02 0.9 q0.18 -0.38 0.46 -0.74 t0.66 -0.64 t0.87 -0.45 t1.11 -0.17 q0.58 0 1 0.14 t0.73 0.39 t0.52 0.59 t0.39 0.76 q0.22 -0.32 0.5 -0.66 t0.64 -0.61 t0.83 -0.44 t1.05 -0.17 q1.78 0 2.57 1.02 t0.79 2.92 l0 6.5 q-0.12 0.02 -0.33 0.03 t-0.33 0.01 q-0.1 0 -0.32 -0.01 t-0.34 -0.03 l0 -6.04 q0 -1.62 -0.53 -2.4 t-1.59 -0.78 q-0.64 0 -1.12 0.26 t-0.8 0.7 t-0.49 1.03 t-0.17 1.25 l0 5.98 q-0.12 0.02 -0.33 0.03 t-0.33 0.01 q-0.1 0 -0.32 -0.01 t-0.34 -0.03 l0 -6.3 q0 -1.54 -0.49 -2.28 t-1.41 -0.74 q-0.62 0 -1.14 0.31 t-0.9 0.87 t-0.59 1.33 t-0.21 1.69 l0 5.12 q-0.12 0.02 -0.33 0.03 t-0.33 0.01 q-0.1 0 -0.32 -0.01 t-0.34 -0.03 l0 -10.2 z M29.780166666666666 22.78 q0.46 0.16 0.97 0.23 t1.09 0.07 q0.8 0 1.53 -0.26 t1.28 -0.8 t0.88 -1.37 t0.33 -1.99 q0 -1.82 -0.69 -2.86 t-2.23 -1.04 q-0.48 0 -1.04 0.16 t-1.03 0.54 t-0.78 1.01 t-0.31 1.59 l0 4.72 z M28.460166666666666 9.3 q0.12 -0.02 0.33 -0.03 t0.33 -0.01 q0.1 0 0.32 0.01 t0.34 0.03 l0 5.92 q0.42 -0.64 1.21 -1.15 t2.05 -0.51 q0.94 0 1.72 0.29 t1.33 0.91 t0.86 1.56 t0.31 2.26 q0 2.66 -1.46 4.16 t-4.22 1.5 q-0.9 0 -1.74 -0.17 t-1.38 -0.37 l0 -14.4 z M40.56025 19.1 q0 2.04 0.94 3 t2.82 0.96 q0.76 0 1.41 -0.13 t1.27 -0.35 q0.1 0.22 0.16 0.54 t0.08 0.58 q-0.58 0.26 -1.36 0.4 t-1.7 0.14 q-1.32 0 -2.27 -0.39 t-1.56 -1.09 t-0.9 -1.67 t-0.29 -2.13 q0 -1.12 0.27 -2.1 t0.82 -1.72 t1.41 -1.16 t2.06 -0.42 q1 0 1.78 0.34 t1.31 0.95 t0.8 1.46 t0.27 1.85 q0 0.18 -0.01 0.46 t-0.03 0.48 l-7.28 0 z M46.56025 18 q0 -0.62 -0.16 -1.22 t-0.5 -1.05 t-0.88 -0.73 t-1.3 -0.28 q-1.4 0 -2.18 0.86 t-0.94 2.42 l5.96 0 z M50.24033333333333 13.8 q0.16 -0.02 0.31 -0.03 t0.29 -0.01 q0.16 0 0.3 0.01 t0.3 0.03 q0.04 0.36 0.06 0.85 t0.02 0.89 q0.4 -0.74 1.12 -1.25 t1.9 -0.51 l0.21 0 t0.25 0.02 q0.06 0.34 0.06 0.64 q0 0.32 -0.06 0.62 q-0.16 -0.02 -0.25 -0.02 l-0.19 0 q-1.36 0 -2.18 0.86 t-0.82 2.86 l0 5.24 q-0.12 0.02 -0.33 0.03 t-0.33 0.01 q-0.1 0 -0.32 -0.01 t-0.34 -0.03 l0 -10.2 z M61.10041666666666 17.64 q0.02 0.1 0.03 0.31 t0.01 0.37 t-0.01 0.36 t-0.03 0.3 l-5.26 0 q-0.02 -0.1 -0.03 -0.3 t-0.01 -0.36 t0.01 -0.37 t0.03 -0.31 l5.26 0 z M69.98049999999999 22.72 q0.1 0.2 0.19 0.54 t0.13 0.56 q-0.5 0.18 -1.14 0.3 t-1.42 0.12 q-2.5 0 -3.8 -1.37 t-1.3 -3.97 q0 -1.14 0.32 -2.11 t0.94 -1.69 t1.55 -1.13 t2.15 -0.41 q0.76 0 1.45 0.11 t1.09 0.25 q0 0.26 -0.07 0.6 t-0.15 0.54 q-0.4 -0.14 -1.01 -0.24 t-1.31 -0.1 q-0.9 0 -1.57 0.31 t-1.12 0.87 t-0.67 1.32 t-0.22 1.68 q0 2.16 1.03 3.17 t2.79 1.01 q0.6 0 1.15 -0.1 t0.99 -0.26 z M72.28058333333333 9.3 q0.12 -0.02 0.33 -0.03 t0.33 -0.01 q0.1 0 0.32 0.01 t0.34 0.03 l0 6.32 q0.2 -0.36 0.52 -0.73 t0.74 -0.67 t0.95 -0.48 t1.17 -0.18 q1.76 0 2.59 1.05 t0.83 2.95 l0 6.44 q-0.12 0.02 -0.33 0.03 t-0.33 0.01 q-0.1 0 -0.32 -0.01 t-0.34 -0.03 l0 -6.04 q0 -1.7 -0.56 -2.44 t-1.62 -0.74 q-0.7 0 -1.31 0.26 t-1.05 0.77 t-0.69 1.28 t-0.25 1.77 l0 5.14 q-0.12 0.02 -0.33 0.03 t-0.33 0.01 q-0.1 0 -0.32 -0.01 t-0.34 -0.03 l0 -14.7 z M88.80066666666664 19.04 q-0.34 -0.04 -0.85 -0.09 t-0.97 -0.05 q-1.5 0 -2.32 0.56 t-0.82 1.6 q0 0.66 0.25 1.06 t0.65 0.61 t0.88 0.28 t0.96 0.07 q0.62 0 1.16 -0.06 t1.06 -0.16 l0 -3.82 z M88.80066666666664 17.259999999999998 q0 -1.32 -0.62 -1.93 t-1.84 -0.61 q-0.8 0 -1.46 0.11 t-1.18 0.27 q-0.1 -0.18 -0.17 -0.52 t-0.07 -0.64 q0.52 -0.16 1.28 -0.27 t1.56 -0.11 q1.94 0 2.88 0.85 t0.94 2.67 l0 6.74 q-0.7 0.14 -1.7 0.28 t-1.9 0.14 q-1.86 0 -2.93 -0.74 t-1.07 -2.4 q0 -0.8 0.31 -1.43 t0.86 -1.06 t1.32 -0.65 t1.69 -0.22 q0.72 0 1.24 0.05 t0.86 0.09 l0 -0.62 z M92.90074999999999 13.8 q0.16 -0.02 0.31 -0.03 t0.29 -0.01 q0.16 0 0.3 0.01 t0.3 0.03 q0.04 0.36 0.06 0.9 t0.02 0.94 q0.2 -0.36 0.52 -0.73 t0.75 -0.67 t0.99 -0.49 t1.22 -0.19 q1.76 0 2.56 1.05 t0.8 2.95 l0 6.44 q-0.12 0.02 -0.33 0.03 t-0.33 0.01 q-0.1 0 -0.32 -0.01 t-0.34 -0.03 l0 -6.04 q0 -1.7 -0.53 -2.44 t-1.59 -0.74 q-0.7 0 -1.32 0.28 t-1.07 0.81 t-0.71 1.31 t-0.26 1.78 l0 5.04 q-0.12 0.02 -0.33 0.03 t-0.33 0.01 q-0.1 0 -0.32 -0.01 t-0.34 -0.03 l0 -10.2 z M109.0608333333333 22.98 q1.76 0.04 2.51 0.73 t0.75 1.83 q0 0.78 -0.4 1.41 t-1.12 1.08 t-1.71 0.7 t-2.15 0.25 q-0.9 0 -1.65 -0.14 t-1.3 -0.45 t-0.85 -0.82 t-0.3 -1.25 q0 -0.76 0.44 -1.46 t1.14 -1.04 q-0.38 -0.24 -0.64 -0.61 t-0.26 -0.91 q0 -0.78 0.37 -1.3 t0.99 -0.94 q-0.7 -0.44 -1.12 -1.18 t-0.42 -1.76 q0 -0.74 0.25 -1.39 t0.75 -1.13 t1.23 -0.76 t1.69 -0.28 q0.82 0 1.46 0.21 t1.12 0.55 q0.2 -0.08 0.5 -0.18 t0.66 -0.17 t0.74 -0.12 t0.74 -0.05 q0.08 0.3 0.08 0.66 q0 0.38 -0.08 0.68 l-1.9 0 q0.28 0.44 0.43 0.93 t0.15 1.05 q0 0.86 -0.3 1.52 t-0.83 1.11 t-1.24 0.69 t-1.53 0.24 q-0.86 0 -1.5 -0.22 q-0.56 0.36 -0.79 0.69 t-0.23 0.75 q0 0.2 0.06 0.38 t0.25 0.33 t0.53 0.24 t0.88 0.09 z M106.2208333333333 24.18 q-0.94 -0.02 -1.51 0.53 t-0.57 1.45 q0 0.48 0.22 0.8 t0.61 0.5 t0.91 0.25 t1.1 0.07 q1.86 0 2.9 -0.63 t1.04 -1.51 q0 -0.76 -0.52 -1.08 t-1.7 -0.34 z M104.74083333333331 17.12 q0 1.04 0.61 1.75 t1.91 0.71 t1.92 -0.71 t0.62 -1.75 t-0.62 -1.75 t-1.92 -0.71 t-1.91 0.71 t-0.61 1.75 z M114.82091666666663 19.1 q0 2.04 0.94 3 t2.82 0.96 q0.76 0 1.41 -0.13 t1.27 -0.35 q0.1 0.22 0.16 0.54 t0.08 0.58 q-0.58 0.26 -1.36 0.4 t-1.7 0.14 q-1.32 0 -2.27 -0.39 t-1.56 -1.09 t-0.9 -1.67 t-0.29 -2.13 q0 -1.12 0.27 -2.1 t0.82 -1.72 t1.41 -1.16 t2.06 -0.42 q1 0 1.78 0.34 t1.31 0.95 t0.8 1.46 t0.27 1.85 q0 0.18 -0.01 0.46 t-0.03 0.48 l-7.28 0 z M120.82091666666663 18 q0 -0.62 -0.16 -1.22 t-0.5 -1.05 t-0.88 -0.73 t-1.3 -0.28 q-1.4 0 -2.18 0.86 t-0.94 2.42 l5.96 0 z M124.22099999999998 22.6 q0.44 0.18 1.14 0.31 t1.34 0.13 q1.2 0 1.9 -0.53 t0.7 -1.31 q0 -0.54 -0.21 -0.89 t-0.56 -0.59 t-0.79 -0.39 t-0.9 -0.31 q-0.5 -0.16 -0.99 -0.36 t-0.87 -0.51 t-0.61 -0.75 t-0.23 -1.1 q0 -1.22 0.89 -1.98 t2.75 -0.76 q0.78 0 1.51 0.14 t1.13 0.3 q-0.1 0.58 -0.28 1.14 q-0.42 -0.14 -1.07 -0.28 t-1.35 -0.14 q-1.22 0 -1.73 0.43 t-0.51 1.13 q0 0.38 0.17 0.65 t0.46 0.46 t0.66 0.33 t0.79 0.26 q0.54 0.18 1.09 0.39 t1 0.55 t0.74 0.86 t0.29 1.3 q0 0.72 -0.29 1.31 t-0.81 1 t-1.24 0.63 t-1.58 0.22 q-0.96 0 -1.71 -0.12 t-1.21 -0.32 q0.12 -0.6 0.38 -1.2 z M133.8410833333333 19.1 q0 2.04 0.94 3 t2.82 0.96 q0.76 0 1.41 -0.13 t1.27 -0.35 q0.1 0.22 0.16 0.54 t0.08 0.58 q-0.58 0.26 -1.36 0.4 t-1.7 0.14 q-1.32 0 -2.27 -0.39 t-1.56 -1.09 t-0.9 -1.67 t-0.29 -2.13 q0 -1.12 0.27 -2.1 t0.82 -1.72 t1.41 -1.16 t2.06 -0.42 q1 0 1.78 0.34 t1.31 0.95 t0.8 1.46 t0.27 1.85 q0 0.18 -0.01 0.46 t-0.03 0.48 l-7.28 0 z M139.8410833333333 18 q0 -0.62 -0.16 -1.22 t-0.5 -1.05 t-0.88 -0.73 t-1.3 -0.28 q-1.4 0 -2.18 0.86 t-0.94 2.42 l5.96 0 z M143.98116666666664 14.92 l-1.74 0 q-0.02 -0.1 -0.03 -0.26 t-0.01 -0.32 t0.01 -0.3 t0.03 -0.24 l1.74 0 l0 -1.92 l1.24 -1.22 l0.08 0 l0 3.14 l2.76 0 q0.02 0.1 0.03 0.24 t0.01 0.3 t-0.01 0.32 t-0.03 0.26 l-2.76 0 l0 6.64 q0 0.5 0.13 0.79 t0.34 0.45 t0.48 0.21 t0.55 0.05 q0.7 0 1.22 -0.18 q0.14 0.52 0.2 1.12 q-0.72 0.22 -1.68 0.22 q-1.14 0 -1.85 -0.61 t-0.71 -1.99 l0 -6.7 z"/></g><g id="SvgjsG1107" rel="mainfill" name="symbol" feature="symbol" xmlns:name="symbol_mainfill" fill="#e04931" transform="translate(15, -1.2968397736549377) scale(1.2013888888888888)"><path xmlns="http://www.w3.org/2000/svg" d="M30.883,38.565l-3.245,2.338L32.75,48H0v4h32.505l-4.867,6.756l3.245,2.338L39,49.831L30.883,38.565z M91.883,38.565  l-3.245,2.338L93.75,48H61v4h32.505l-4.867,6.756l3.245,2.338L100,49.831L91.883,38.565z M30.883,63.565l-3.245,2.338L32.75,73H0v4  h32.505l-4.867,6.756l3.245,2.338L39,74.831L30.883,63.565z M30.883,13.565l-3.245,2.338L32.75,23H0v4h32.505l-4.867,6.756  l3.245,2.338L39,24.831L30.883,13.565z M52,77h-4V23h4V77z"/></g>
			</g>
		</svg>
    