<svg width="619" height="270" xmlns="http://www.w3.org/2000/svg"><path d="M5.6 189.36q0 8.16 3.76 12t11.28 3.84q3.04 0 5.64-.52t5.08-1.4q.4.88.64 2.16t.32 2.32q-2.32 1.04-5.44 1.6t-6.8.56q-5.28 0-9.08-1.56T4.76 204t-3.6-6.68T0 188.8q0-4.48 1.08-8.4t3.28-6.88 5.64-4.64 8.24-1.68q4 0 7.12 1.36t5.24 3.8 3.2 5.84 1.08 7.4q0 .72-.04 1.84t-.12 1.92H5.6zm24-4.4q0-2.48-.64-4.88t-2-4.2-3.52-2.92-5.2-1.12q-5.6 0-8.72 3.44t-3.76 9.68H29.6zm16.95-16.8q.64-.08 1.24-.12t1.16-.04q.64 0 1.2.04t1.2.12q.16 1.44.24 3.44t.08 3.6q.72-1.52 1.84-2.96t2.64-2.56 3.48-1.8 4.44-.68q2.32 0 4 .56t2.92 1.56 2.08 2.36 1.56 3.04q.88-1.28 2-2.64t2.56-2.44 3.32-1.76 4.2-.68q7.12 0 10.28 4.08t3.16 11.68v26q-.48.08-1.32.12t-1.32.04q-.4 0-1.28-.04t-1.36-.12V184.8q0-6.48-2.12-9.6t-6.36-3.12q-2.56 0-4.48 1.04t-3.2 2.8-1.96 4.12-.68 5v23.92q-.48.08-1.32.12t-1.32.04q-.4 0-1.28-.04t-1.36-.12v-25.2q0-6.16-1.96-9.12t-5.64-2.96q-2.48 0-4.56 1.24t-3.6 3.48-2.36 5.32-.84 6.76v20.48q-.48.08-1.32.12t-1.32.04q-.4 0-1.28-.04t-1.36-.12v-40.8zm72.23 35.92q1.84.64 3.88.92t4.36.28q3.2 0 6.12-1.04t5.12-3.2 3.52-5.48 1.32-7.96q0-7.28-2.76-11.44t-8.92-4.16q-1.92 0-4.16.64t-4.12 2.16-3.12 4.04-1.24 6.36v18.88zm-5.28-53.92q.48-.08 1.32-.12t1.32-.04q.4 0 1.28.04t1.36.12v23.68q1.68-2.56 4.84-4.6t8.2-2.04q3.76 0 6.88 1.16t5.32 3.64 3.44 6.24 1.24 9.04q0 10.64-5.84 16.64t-16.88 6q-3.6 0-6.96-.68t-5.52-1.48v-57.6zm50.629 39.2q0 8.16 3.76 12t11.28 3.84q3.04 0 5.64-.52t5.08-1.4q.4.88.64 2.16t.32 2.32q-2.32 1.04-5.44 1.6t-6.8.56q-5.28 0-9.08-1.56t-6.24-4.36-3.6-6.68-1.16-8.52q0-4.48 1.08-8.4t3.28-6.88 5.64-4.64 8.24-1.68q4 0 7.12 1.36t5.24 3.8 3.2 5.84 1.08 7.4q0 .72-.04 1.84t-.12 1.92h-29.12zm24-4.4q0-2.48-.64-4.88t-2-4.2-3.52-2.92-5.2-1.12q-5.6 0-8.72 3.44t-3.76 9.68h23.84zm16.95-16.8q.64-.08 1.24-.12t1.16-.04q.64 0 1.2.04t1.2.12q.16 1.44.24 3.4t.08 3.56q1.6-2.96 4.48-5t7.6-2.04h.84l1 .08q.24 1.36.24 2.56 0 1.28-.24 2.48-.64-.08-1-.08h-.76q-5.44 0-8.72 3.44t-3.28 11.44v20.96q-.48.08-1.32.12t-1.32.04q-.4 0-1.28-.04t-1.36-.12v-40.8zm45.67 15.36q.08.4.12 1.24t.04 1.48-.04 1.44-.12 1.2h-21.04q-.08-.4-.12-1.2t-.04-1.44.04-1.48.12-1.24h21.04zm37.749 20.32q.4.8.76 2.16t.52 2.24q-2 .72-4.56 1.2t-5.68.48q-10 0-15.2-5.48t-5.2-15.88q0-4.56 1.28-8.44t3.76-6.76 6.2-4.52 8.6-1.64q3.04 0 5.8.44t4.36 1q0 1.04-.28 2.4t-.6 2.16q-1.6-.56-4.04-.96t-5.24-.4q-3.6 0-6.28 1.24t-4.48 3.48-2.68 5.28-.88 6.72q0 8.64 4.12 12.68t11.16 4.04q2.4 0 4.6-.4t3.96-1.04zm11.43-53.68q.48-.08 1.32-.12t1.32-.04q.4 0 1.28.04t1.36.12v25.28q.8-1.44 2.08-2.92t2.96-2.68 3.8-1.92 4.68-.72q7.04 0 10.36 4.2t3.32 11.8v25.76q-.48.08-1.32.12t-1.32.04q-.4 0-1.28-.04t-1.36-.12V184.8q0-6.8-2.24-9.76t-6.48-2.96q-2.8 0-5.24 1.04t-4.2 3.08-2.76 5.12-1 7.08v20.56q-.48.08-1.32.12t-1.32.04q-.4 0-1.28-.04t-1.36-.12v-58.8zm68.31 38.96q-1.36-.16-3.4-.36t-3.88-.2q-6 0-9.28 2.24t-3.28 6.4q0 2.64 1 4.24t2.6 2.44 3.52 1.12 3.84.28q2.48 0 4.64-.24t4.24-.64v-15.28zm0-7.12q0-5.28-2.48-7.72t-7.36-2.44q-3.2 0-5.84.44t-4.72 1.08q-.4-.72-.68-2.08t-.28-2.56q2.08-.64 5.12-1.08t6.24-.44q7.76 0 11.52 3.4t3.76 10.68v26.96q-2.8.56-6.8 1.12t-7.6.56q-7.44 0-11.72-2.96t-4.28-9.6q0-3.2 1.24-5.72t3.44-4.24 5.28-2.6 6.76-.88q2.88 0 4.96.2t3.44.36V182zm18.629-13.84q.64-.08 1.24-.12t1.16-.04q.64 0 1.2.04t1.2.12q.16 1.44.24 3.6t.08 3.76q.8-1.44 2.08-2.92t3-2.68 3.96-1.96 4.88-.76q7.04 0 10.24 4.2t3.2 11.8v25.76q-.48.08-1.32.12t-1.32.04q-.4 0-1.28-.04t-1.36-.12V184.8q0-6.8-2.12-9.76t-6.36-2.96q-2.8 0-5.28 1.12t-4.28 3.24-2.84 5.24-1.04 7.12v20.16q-.48.08-1.32.12t-1.32.04q-.4 0-1.28-.04t-1.36-.12v-40.8zm66.87 36.72q7.04.16 10.04 2.92t3 7.32q0 3.12-1.6 5.64t-4.48 4.32-6.84 2.8-8.6 1q-3.6 0-6.6-.56t-5.2-1.8-3.4-3.28-1.2-5q0-3.04 1.76-5.84t4.56-4.16q-1.52-.96-2.56-2.44t-1.04-3.64q0-3.12 1.48-5.2t3.96-3.76q-2.8-1.76-4.48-4.72t-1.68-7.04q0-2.96 1-5.56t3-4.52 4.92-3.04 6.76-1.12q3.28 0 5.84.84t4.48 2.2q.8-.32 2-.72t2.64-.68 2.96-.48 2.96-.2q.32 1.2.32 2.64 0 1.52-.32 2.72h-7.6q1.12 1.76 1.72 3.72t.6 4.2q0 3.44-1.2 6.08t-3.32 4.44-4.96 2.76-6.12.96q-3.44 0-6-.88-2.24 1.44-3.16 2.76t-.92 3q0 .8.24 1.52t1 1.32 2.12.96 3.52.36zm-11.36 4.8q-3.76-.08-6.04 2.12t-2.28 5.8q0 1.92.88 3.2t2.44 2 3.64 1 4.4.28q7.44 0 11.6-2.52t4.16-6.04q0-3.04-2.08-4.32t-6.8-1.36zm-5.92-28.24q0 4.16 2.44 7t7.64 2.84 7.68-2.84 2.48-7-2.48-7-7.68-2.84-7.64 2.84-2.44 7zm42.55 7.92q0 8.16 3.76 12t11.28 3.84q3.04 0 5.64-.52t5.08-1.4q.4.88.64 2.16t.32 2.32q-2.32 1.04-5.44 1.6t-6.8.56q-5.28 0-9.08-1.56t-6.24-4.36-3.6-6.68-1.16-8.52q0-4.48 1.08-8.4t3.28-6.88 5.64-4.64 8.24-1.68q4 0 7.12 1.36t5.24 3.8 3.2 5.84 1.08 7.4q0 .72-.04 1.84t-.12 1.92h-29.12zm24-4.4q0-2.48-.64-4.88t-2-4.2-3.52-2.92-5.2-1.12q-5.6 0-8.72 3.44t-3.76 9.68h23.84zm15.829 18.4q1.76.72 4.56 1.24t5.36.52q4.8 0 7.6-2.12t2.8-5.24q0-2.16-.84-3.56t-2.24-2.36-3.16-1.56-3.6-1.24q-2-.64-3.96-1.44t-3.48-2.04-2.44-3-.92-4.4q0-4.88 3.56-7.92t11-3.04q3.12 0 6.04.56t4.52 1.2q-.4 2.32-1.12 4.56-1.68-.56-4.28-1.12t-5.4-.56q-4.88 0-6.92 1.72t-2.04 4.52q0 1.52.68 2.6t1.84 1.84 2.64 1.32 3.16 1.04q2.16.72 4.36 1.56t4 2.2 2.96 3.44 1.16 5.2q0 2.88-1.16 5.24t-3.24 4-4.96 2.52-6.32.88q-3.84 0-6.84-.48t-4.84-1.28q.48-2.4 1.52-4.8zm40.71-14q0 8.16 3.76 12t11.28 3.84q3.04 0 5.64-.52t5.08-1.4q.4.88.64 2.16t.32 2.32q-2.32 1.04-5.44 1.6t-6.8.56q-5.28 0-9.08-1.56t-6.24-4.36-3.6-6.68-1.16-8.52q0-4.48 1.08-8.4t3.28-6.88 5.64-4.64 8.24-1.68q4 0 7.12 1.36t5.24 3.8 3.2 5.84 1.08 7.4q0 .72-.04 1.84t-.12 1.92h-29.12zm24-4.4q0-2.48-.64-4.88t-2-4.2-3.52-2.92-5.2-1.12q-5.6 0-8.72 3.44t-3.76 9.68h23.84zm18.79-12.32h-6.96q-.08-.4-.12-1.04t-.04-1.28.04-1.2.12-.96h6.96v-7.68l4.96-4.88h.32v12.56h11.04q.08.4.12.96t.04 1.2-.04 1.28-.12 1.04h-11.04v26.56q0 2 .52 3.16t1.36 1.8 1.92.84 2.2.2q2.8 0 4.88-.72.56 2.08.8 4.48-2.88.88-6.72.88-4.56 0-7.4-2.44t-2.84-7.96v-26.8z" xmlns:name="mainText_mainfill" fill="#24292e"/><path d="M52.392 246.44v1.44h-8.808v6.048h8.256v1.44h-8.256v6.624h9.192v1.44H42V246.44h10.392zm9.642 5.616q1.224 0 2.1.624t1.236 1.776q.48-1.152 1.512-1.776t2.28-.624q4.2 0 4.2 4.704v6.672h-1.44v-6.6q0-3.456-2.784-3.48-1.68 0-2.52 1.104t-.84 2.856v6.12h-1.44v-6.744q0-1.512-.576-2.412t-1.752-.924q-1.728 0-2.76 1.212t-1.056 3.372v5.496h-1.44v-8.088q-.024-.816-.12-3h1.44q.048 1.776.096 1.944h.072q.48-1.032 1.536-1.632t2.256-.6zm17.082 5.832q0 1.92 1.38 3.204t3.252 1.332q1.944 0 3.168-1.308t1.224-3.228q0-1.968-1.236-3.252t-3.18-1.284q-1.896 0-3.228 1.308t-1.38 3.228zm-1.296-12.6h1.44v9h.048q.624-1.08 1.848-1.656t2.592-.576q2.592 0 4.212 1.68t1.62 4.152q0 2.568-1.656 4.188t-4.176 1.644q-1.416 0-2.652-.624t-1.788-1.608h-.048v1.944h-1.44v-18.144zm24.594 11.664q0-1.512-1.128-2.556t-2.736-1.044q-1.56 0-2.688 1.044t-1.32 2.556h7.872zm-3.768-4.896q2.304 0 3.744 1.488t1.464 3.84v.864h-9.312q.096 1.872 1.236 3.012t2.964 1.164q1.128 0 2.148-.54t1.572-1.428l1.056.888q-1.56 2.376-4.8 2.376-2.544-.024-4.068-1.656t-1.548-4.2q0-2.496 1.572-4.14t3.972-1.668zm14.298 0q.408 0 .84.12l-.168 1.416q-.264-.096-.576-.096-1.752 0-2.676 1.08t-.924 2.808v6.048H108v-8.088q0-.24-.12-3h1.44q.048 1.656.096 1.944 1.248-2.232 3.528-2.232zm5.178 9.216q.48 0 .816.336t.336.816-.336.816-.816.336-.816-.336-.336-.816.336-.816.816-.336zm6.21-8.928h1.44v13.152q0 1.944-.767 2.82t-2.376.876q-.6 0-1.176-.216l.216-1.272q.456.192.936.192.864 0 1.296-.516t.432-1.788v-13.248zm.72-5.472q.48 0 .78.312t.3.768-.3.768-.78.312q-.455 0-.767-.312t-.312-.768.312-.768.768-.312zm8.755 5.184q2.808 0 3.888 2.088l-1.296.768q-.816-1.56-2.592-1.56-.96 0-1.668.516t-.708 1.26.6 1.188 2.088.708q2.208.384 3.048 1.14t.84 2.124q0 1.56-1.116 2.496t-2.916.936q-3.168-.024-4.44-2.256l1.272-.864q.408.84 1.332 1.332t1.884.492q1.104 0 1.824-.612t.72-1.428q0-.744-.588-1.224t-2.556-.864q-1.704-.336-2.568-1.032t-.864-2.016q0-1.416 1.08-2.304t2.736-.888zM153.235 245q1.008 0 1.656.288l-.288 1.248q-.48-.24-1.296-.24-1.944 0-1.944 2.856v3.192h2.592v1.296h-2.592v9.792h-1.44v-9.792h-2.304v-1.296h2.304v-3.72q0-1.632.912-2.616t2.4-1.008zm4.146.288h1.44v18.144h-1.44v-18.144zm7.386 15.072q0 .912.732 1.488t1.812.576q1.944 0 2.892-1.02t.948-2.772v-.768h-1.728q-2.208 0-3.432.672t-1.224 1.824zm3.264-8.304q2.232 0 3.312 1.032t1.104 2.88v3.288q0 2.688.216 4.176h-1.344q-.144-.744-.144-1.8h-.048q-1.2 2.088-3.864 2.088-1.8 0-2.856-.888t-1.08-2.4q0-1.848 1.596-2.784t4.452-.936h1.776v-.648q0-1.368-.84-2.04t-2.28-.672q-1.92 0-3.384 1.248l-.84-.984q.792-.768 1.956-1.164t2.268-.396zm9.258.288l3.696 9.528 3.6-9.528h1.464l-4.368 11.088h-1.488l-4.536-11.088h1.632zm12.786 5.544q0 1.992 1.248 3.264t3.144 1.272q1.968 0 3.18-1.296t1.212-3.24q0-1.92-1.2-3.216t-3.216-1.32q-1.944 0-3.144 1.296t-1.224 3.24zm4.392-5.832q2.544 0 4.176 1.656t1.656 4.176q0 2.568-1.668 4.188t-4.164 1.644q-2.616-.024-4.212-1.68t-1.62-4.152q0-2.568 1.644-4.188t4.188-1.644zm14.922 0q.408 0 .84.12l-.168 1.416q-.264-.096-.576-.096-1.752 0-2.676 1.08t-.924 2.808v6.048h-1.44v-8.088q0-.24-.12-3h1.44q.048 1.656.096 1.944 1.248-2.232 3.528-2.232zm12.666 4.896q0-1.512-1.128-2.556t-2.736-1.044q-1.56 0-2.688 1.044t-1.32 2.556h7.872zm-3.768-4.896q2.304 0 3.744 1.488t1.464 3.84v.864h-9.312q.096 1.872 1.236 3.012t2.964 1.164q1.128 0 2.148-.54t1.572-1.428l1.056.888q-1.56 2.376-4.8 2.376-2.544-.024-4.068-1.656t-1.548-4.2q0-2.496 1.572-4.14t3.972-1.668zm10.17 5.832q0 1.992 1.249 3.264t3.144 1.272q1.872 0 3.228-1.284t1.404-3.252q0-1.872-1.332-3.192t-3.324-1.344q-1.872 0-3.108 1.272t-1.26 3.264zm8.88-12.6h1.44v18.144h-1.44v-1.944h-.047q-.6 1.056-1.836 1.644t-2.604.588q-2.472 0-4.128-1.62t-1.704-4.212q0-2.472 1.62-4.128t4.212-1.704q1.416 0 2.616.588t1.824 1.644h.048v-9zm18.277 6.768q2.4 0 4.128 1.92l-1.152.864q-1.392-1.488-3-1.488-1.872 0-3.108 1.272t-1.26 3.264q0 1.992 1.248 3.252t3.12 1.284q1.776 0 3-1.536l1.104.912q-1.608 1.896-4.08 1.92-2.52 0-4.152-1.632t-1.68-4.2q0-2.472 1.62-4.128t4.212-1.704zm7.266-6.768h1.44v9h.048q.48-1.032 1.524-1.632t2.268-.6q4.224 0 4.224 4.68v6.696h-1.44v-6.552q0-3.528-2.784-3.528-1.8 0-2.82 1.236t-1.02 3.252v5.592h-1.44v-18.144zm15.21 15.072q0 .912.732 1.488t1.812.576q1.944 0 2.892-1.02t.948-2.772v-.768h-1.728q-2.208 0-3.432.672t-1.224 1.824zm3.264-8.304q2.232 0 3.312 1.032t1.104 2.88v3.288q0 2.688.216 4.176h-1.344q-.144-.744-.144-1.8h-.048q-1.2 2.088-3.864 2.088-1.8 0-2.856-.888t-1.08-2.4q0-1.848 1.596-2.784t4.452-.936h1.776v-.648q0-1.368-.84-2.04t-2.28-.672q-1.92 0-3.384 1.248l-.84-.984q.792-.768 1.956-1.164t2.268-.396zm14.466 0q2.16 0 3.18 1.164t1.044 3.66v6.552h-1.44v-6.48q0-1.848-.684-2.724t-2.1-.876q-1.752 0-2.784 1.212t-1.056 3.372v5.496h-1.44v-8.088q-.024-.696-.12-3h1.44q.048 1.896.096 1.944h.072q.48-1.008 1.524-1.62t2.268-.612zm9.954 5.688q0 1.824 1.284 3.084t3.108 1.308q1.8 0 3.072-1.272t1.32-3.12q0-1.824-1.296-3.096t-3.12-1.296q-1.824 0-3.096 1.308t-1.272 3.084zm4.488-5.688q2.832.024 4.2 2.16h.048v-1.872h1.44v10.32q0 3.24-1.56 4.884t-4.368 1.644q-1.68 0-3.144-.612t-2.328-1.716l1.128-1.056q1.488 2.088 4.368 2.088 4.464 0 4.464-4.968v-1.656h-.048q-1.344 2.112-4.2 2.16-2.4 0-4.128-1.644t-1.8-4.044q0-2.352 1.764-4.008t4.164-1.68zm18.834 4.896q0-1.512-1.128-2.556t-2.736-1.044q-1.56 0-2.688 1.044t-1.32 2.556h7.872zm-3.768-4.896q2.304 0 3.744 1.488t1.464 3.84v.864h-9.312q.096 1.872 1.236 3.012t2.964 1.164q1.128 0 2.148-.54t1.572-1.428l1.056.888q-1.56 2.376-4.8 2.376-2.544-.024-4.068-1.656t-1.548-4.2q0-2.496 1.572-4.14t3.972-1.668zm12.378 0q2.808 0 3.888 2.088l-1.296.768q-.816-1.56-2.592-1.56-.96 0-1.668.516t-.708 1.26.6 1.188 2.088.708q2.208.384 3.048 1.14t.84 2.124q0 1.56-1.116 2.496t-2.916.936q-3.168-.024-4.44-2.256l1.272-.864q.408.84 1.332 1.332t1.884.492q1.104 0 1.824-.612t.72-1.428q0-.744-.588-1.224t-2.556-.864q-1.704-.336-2.568-1.032t-.864-2.016q0-1.416 1.08-2.304t2.736-.888zm16.818 4.896q0-1.512-1.128-2.556t-2.736-1.044q-1.56 0-2.688 1.044t-1.32 2.556h7.872zm-3.768-4.896q2.304 0 3.744 1.488t1.464 3.84v.864h-9.312q.096 1.872 1.236 3.012t2.964 1.164q1.128 0 2.148-.54t1.572-1.428l1.056.888q-1.56 2.376-4.8 2.376-2.544-.024-4.068-1.656t-1.548-4.2q0-2.496 1.572-4.14t3.972-1.668zm10.17-2.904h1.44v3.192h3.169v1.296h-3.168v7.248q0 .696.408 1.116t1.128.42q.792 0 1.632-.384l.12 1.296q-1.08.384-1.896.384-1.416 0-2.124-.792t-.708-2.04v-7.248h-2.4v-1.296h2.4v-3.192zm11.13 2.904q2.809 0 3.889 2.088l-1.296.768q-.816-1.56-2.592-1.56-.96 0-1.668.516t-.708 1.26.6 1.188 2.088.708q2.208.384 3.048 1.14t.84 2.124q0 1.56-1.116 2.496t-2.916.936q-3.168-.024-4.44-2.256l1.272-.864q.408.84 1.332 1.332t1.884.492q1.104 0 1.824-.612t.72-1.428q0-.744-.588-1.224t-2.556-.864q-1.704-.336-2.568-1.032t-.864-2.016q0-1.416 1.08-2.304t2.736-.888zm10.675 9.216l-1.848 5.472h-1.416l1.584-5.472h1.68zm12.036-8.928h1.44v11.088h-1.44v-11.088zm.72-5.472q.48 0 .78.312t.3.768-.3.768-.78.312q-.456 0-.768-.312t-.312-.768.312-.768.768-.312zm11.01 5.184q2.16 0 3.18 1.164t1.044 3.66v6.552h-1.44v-6.48q0-1.848-.684-2.724t-2.1-.876q-1.752 0-2.784 1.212t-1.056 3.372v5.496h-1.44v-8.088q-.024-.696-.12-3h1.44q.048 1.896.096 1.944h.072q.48-1.008 1.524-1.62t2.268-.612zm12.018 0q2.808 0 3.888 2.088l-1.296.768q-.816-1.56-2.592-1.56-.96 0-1.668.516t-.708 1.26.6 1.188 2.088.708q2.208.384 3.048 1.14t.84 2.124q0 1.56-1.116 2.496t-2.916.936q-3.168-.024-4.44-2.256l1.272-.864q.408.84 1.332 1.332t1.884.492q1.104 0 1.824-.612t.72-1.428q0-.744-.588-1.224t-2.556-.864q-1.704-.336-2.568-1.032t-.864-2.016q0-1.416 1.08-2.304t2.736-.888zm9.114 5.832q0 1.896 1.344 3.192t3.288 1.344q1.944 0 3.156-1.284t1.236-3.252q0-1.92-1.2-3.216t-3.216-1.32q-1.944 0-3.264 1.32t-1.344 3.216zm4.632-5.832q2.544 0 4.176 1.644t1.656 4.188q0 2.544-1.632 4.176t-4.2 1.656q-1.416 0-2.628-.6t-1.812-1.632h-.048v7.416h-1.44v-16.56h1.44v1.944h.048q.576-1.008 1.8-1.62t2.64-.612zm10.218.288h1.44v11.088h-1.44v-11.088zm.72-5.472q.48 0 .78.312t.3.768-.3.768-.78.312q-.456 0-.768-.312t-.312-.768.312-.768.768-.312zm10.674 5.184q.408 0 .84.12l-.168 1.416q-.264-.096-.576-.096-1.752 0-2.676 1.08t-.924 2.808v6.048h-1.44v-8.088q0-.24-.12-3h1.44q.048 1.656.096 1.944 1.248-2.232 3.528-2.232zm12.667 4.896q0-1.512-1.128-2.556t-2.736-1.044q-1.56 0-2.688 1.044t-1.32 2.556h7.872zm-3.768-4.896q2.304 0 3.744 1.488t1.464 3.84v.864h-9.312q.096 1.872 1.236 3.012t2.964 1.164q1.128 0 2.148-.54t1.572-1.428l1.056.888q-1.56 2.376-4.8 2.376-2.544-.024-4.068-1.656t-1.548-4.2q0-2.496 1.572-4.14t3.972-1.668zm10.17 5.832q0 1.992 1.248 3.264t3.144 1.272q1.872 0 3.228-1.284t1.404-3.252q0-1.872-1.332-3.192t-3.324-1.344q-1.872 0-3.108 1.272t-1.26 3.264zm8.88-12.6h1.44v18.144h-1.44v-1.944h-.048q-.6 1.056-1.836 1.644t-2.604.588q-2.472 0-4.128-1.62t-1.704-4.212q0-2.472 1.62-4.128t4.212-1.704q1.416 0 2.616.588t1.824 1.644h.048v-9zm14.052 12.6q0 1.92 1.38 3.204t3.252 1.332q1.944 0 3.168-1.308t1.224-3.228q0-1.968-1.236-3.252t-3.18-1.284q-1.896 0-3.228 1.308t-1.38 3.228zm-1.296-12.6h1.44v9h.048q.624-1.08 1.848-1.656t2.592-.576q2.592 0 4.212 1.68t1.62 4.152q0 2.568-1.656 4.188t-4.176 1.644q-1.416 0-2.652-.624t-1.788-1.608h-.048v1.944h-1.44v-18.144zm15.954 7.056l3.672 9.336 3.576-9.336h1.536l-5.688 14.472q-.936 2.376-3.072 2.376-.672 0-1.416-.216l.144-1.344q.792.264 1.296.264.552 0 .984-.384t.84-1.392l1.032-2.64-4.512-11.136h1.608zm29.964-5.904v1.44h-8.808v6.048h8.256v1.44h-8.256v6.624h9.192v1.44h-10.776V246.44h10.392zm9.57 5.616q2.4 0 4.128 1.92l-1.152.864q-1.392-1.488-3-1.488-1.872 0-3.108 1.272t-1.26 3.264q0 1.992 1.248 3.252t3.12 1.284q1.776 0 3-1.536l1.104.912q-1.608 1.896-4.08 1.92-2.52 0-4.152-1.632t-1.68-4.2q0-2.472 1.62-4.128t4.212-1.704zm8.082-2.904h1.44v3.192h3.168v1.296h-3.168v7.248q0 .696.408 1.116t1.128.42q.792 0 1.632-.384l.12 1.296q-1.08.384-1.896.384-1.416 0-2.124-.792t-.708-2.04v-7.248h-2.4v-1.296h2.4v-3.192zm8.922 8.736q0 1.992 1.248 3.264t3.144 1.272q1.968 0 3.18-1.296t1.212-3.24q0-1.92-1.2-3.216t-3.216-1.32q-1.944 0-3.144 1.296t-1.224 3.24zm4.392-5.832q2.544 0 4.176 1.656t1.656 4.176q0 2.568-1.668 4.188t-4.164 1.644q-2.616-.024-4.212-1.68t-1.62-4.152q0-2.568 1.644-4.188t4.188-1.644z" xmlns:name="sloganText_mainfill" fill="#24292e"/><path xmlns="http://www.w3.org/2000/svg" d="M280.968 53.02l-4.935 3.557 7.774 10.793H234v6.083h49.435l-7.402 10.275 4.935 3.556 12.344-17.13-12.344-17.133zm92.77 0l-4.934 3.557 7.774 10.793h-49.807v6.083h49.435l-7.402 10.275 4.935 3.556 12.344-17.13-12.344-17.133zm-92.77 38.022l-4.935 3.555 7.774 10.794H234v6.083h49.435l-7.402 10.275 4.935 3.556 12.344-17.13-12.344-17.133zm0-76.042l-4.935 3.556 7.774 10.793H234v6.083h49.435l-7.402 10.275 4.935 3.556 12.344-17.13L280.969 15zm32.115 96.474H307V29.35h6.083v82.125z" xmlns:name="symbol_mainfill" fill="#e04e39"/></svg>